<svg width="19" height="15" viewBox="0 0 19 15" fill="none" xmlns="http://www.w3.org/2000/svg">
<path d="M10.3907 0.390382C10.6407 0.14042 10.9798 0 11.3333 0C11.6869 0 12.026 0.14042 12.276 0.390382L18.276 6.39038C18.526 6.64042 18.6664 6.9795 18.6664 7.33305C18.6664 7.6866 18.526 8.02568 18.276 8.27571L12.276 14.2757C12.0245 14.5186 11.6877 14.653 11.3381 14.6499C10.9885 14.6469 10.6541 14.5067 10.4069 14.2595C10.1597 14.0123 10.0195 13.6778 10.0164 13.3282C10.0134 12.9787 10.1478 12.6419 10.3907 12.3904L14 8.66638H1.33333C0.979711 8.66638 0.640573 8.52591 0.390524 8.27586C0.140476 8.02581 0 7.68667 0 7.33305C0 6.97943 0.140476 6.64029 0.390524 6.39024C0.640573 6.14019 0.979711 5.99972 1.33333 5.99972H14L10.3907 2.27572C10.1407 2.02568 10.0003 1.6866 10.0003 1.33305C10.0003 0.979496 10.1407 0.640419 10.3907 0.390382Z" fill="#333333"/>
</svg>
