<svg width="22" height="22" viewBox="0 0 22 22" fill="none" xmlns="http://www.w3.org/2000/svg">
<path d="M6.25291 15.29C3.9231 12.9556 2.13139 10.1405 1.00308 7.04147C0.382327 5.34714 0.951076 3.48597 2.22724 2.2098L3.01699 1.42114C3.22931 1.20839 3.48151 1.0396 3.75914 0.92444C4.03677 0.809278 4.33438 0.75 4.63495 0.75C4.93552 0.75 5.23314 0.809278 5.51077 0.92444C5.7884 1.0396 6.04059 1.20839 6.25291 1.42114L8.10216 3.27039C8.31491 3.48271 8.48369 3.7349 8.59886 4.01253C8.71402 4.29016 8.7733 4.58778 8.7733 4.88835C8.7733 5.18891 8.71402 5.48653 8.59886 5.76416C8.48369 6.04179 8.31491 6.29398 8.10216 6.5063L7.64716 6.9613C7.46503 7.14339 7.32056 7.35957 7.222 7.5975C7.12343 7.83542 7.0727 8.09043 7.0727 8.34797C7.0727 8.60551 7.12343 8.86052 7.222 9.09845C7.32056 9.33637 7.46503 9.55255 7.64716 9.73464L11.8072 13.8957C11.9892 14.0778 12.2054 14.2223 12.4434 14.3209C12.6813 14.4195 12.9363 14.4702 13.1938 14.4702C13.4514 14.4702 13.7064 14.4195 13.9443 14.3209C14.1822 14.2223 14.3984 14.0778 14.5805 13.8957L15.0366 13.4407C15.2489 13.228 15.5011 13.0592 15.7787 12.944C16.0563 12.8289 16.354 12.7696 16.6545 12.7696C16.9551 12.7696 17.2527 12.8289 17.5303 12.944C17.808 13.0592 18.0602 13.228 18.2725 13.4407L20.1217 15.29C20.3345 15.5023 20.5033 15.7545 20.6184 16.0321C20.7336 16.3097 20.7929 16.6074 20.7929 16.9079C20.7929 17.2085 20.7336 17.5061 20.6184 17.7837C20.5033 18.0614 20.3345 18.3136 20.1217 18.5259L19.3331 19.3146C18.0569 20.5918 16.1957 21.1606 14.5014 20.5398C11.4024 19.4115 8.58724 17.6198 6.25291 15.29Z" stroke="#999999" stroke-width="1.5" stroke-linejoin="round"/>
</svg>
