<svg width="24" height="24" viewBox="0 0 24 24" fill="none" xmlns="http://www.w3.org/2000/svg">
<g clip-path="url(#clip0_3007_63732)">
<path d="M23.298 20.4165V23.2592H20.4553" stroke="#EB7A91" stroke-width="2" stroke-miterlimit="10"/>
<path d="M0.699463 3.58338V0.740723H3.54212" stroke="#EB7A91" stroke-width="2" stroke-miterlimit="10"/>
<path d="M23.298 3.58338V0.740723H20.4553" stroke="#EB7A91" stroke-width="2" stroke-miterlimit="10"/>
<path d="M0.699463 20.4165V23.2592H3.54212" stroke="#EB7A91" stroke-width="2" stroke-miterlimit="10"/>
<path d="M18.2129 15.6494L14.7181 14.4534C14.3526 14.3283 14.0683 14.0371 13.9519 13.6688L13.773 13.1026C15.5704 12.3738 16.8381 10.6113 16.8381 8.55254V7.04847C16.8381 4.33765 14.6405 2.14014 11.9298 2.14014C9.21894 2.14014 7.02142 4.3377 7.02142 7.04847V8.55254C7.02142 10.6175 8.29671 12.3844 10.1026 13.1092L9.90412 13.6904C9.7826 14.0463 9.50331 14.3259 9.14764 14.4479L5.64662 15.6494C4.16232 16.1774 3.1709 17.5823 3.1709 19.1577V19.6585H20.6887V19.1577C20.6886 17.5823 19.6972 16.1773 18.2129 15.6494Z" stroke="#EB7A91" stroke-width="2" stroke-miterlimit="10"/>
<path d="M10.6416 6.01859V5.97468C10.6416 5.24142 11.2361 4.64697 11.9693 4.64697C12.7026 4.64697 13.297 5.24142 13.297 5.97468V6.01775C13.297 6.751 12.7026 7.34545 11.9693 7.34545H11.8916V8.81173" stroke="#EB7A91" stroke-width="1.40157" stroke-miterlimit="10"/>
<path d="M11.9111 9.99658V11.3745" stroke="#EB7A91" stroke-width="1.40157" stroke-miterlimit="10"/>
</g>
<defs>
<clipPath id="clip0_3007_63732">
<rect width="24" height="24" fill="white"/>
</clipPath>
</defs>
</svg>
